<svg width="12" height="9" viewBox="0 0 12 9" fill="none" xmlns="http://www.w3.org/2000/svg">
<path d="M0 2.52027V2.16031C0 1.8621 0.251836 1.62037 0.5625 1.62037H9V0.540481C9 0.0597746 9.60701 -0.180387 9.96026 0.158674L11.8353 1.95848C12.0549 2.16935 12.0549 2.51123 11.8353 2.72207L9.96026 4.52188C9.60834 4.85962 9 4.62281 9 4.1401V3.06021H0.5625C0.251836 3.06021 0 2.81848 0 2.52027ZM11.4375 5.93991H3V4.86002C3 4.38051 2.39386 4.1383 2.03974 4.47822L0.164742 6.27802C-0.0549141 6.48889 -0.0549141 6.83077 0.164742 7.04162L2.03974 8.84142C2.39196 9.1795 3 8.94192 3 8.45964V7.37976H11.4375C11.7482 7.37976 12 7.13802 12 6.83981V6.47985C12 6.18164 11.7482 5.93991 11.4375 5.93991Z" fill="#97A4CB"/>
</svg>
